<?xml version="1.0" encoding="utf-8"?>
<!-- Generator: Adobe Illustrator 15.1.0, SVG Export Plug-In . SVG Version: 6.00 Build 0)  -->
<!DOCTYPE svg PUBLIC "-//W3C//DTD SVG 1.1//EN" "http://www.w3.org/Graphics/SVG/1.1/DTD/svg11.dtd">
<svg version="1.1" id="Layer_1" xmlns="http://www.w3.org/2000/svg" xmlns:xlink="http://www.w3.org/1999/xlink" viewBox="0 0 787.99 596.688" enable-background="new 0 0 787.99 596.688" xml:space="preserve">
<g>
	<linearGradient id="SVGID_1_" gradientUnits="userSpaceOnUse" x1="115.3354" y1="316.8584" x2="398.8203" y2="318.3584">
		<stop  offset="0" style="stop-color:#762811"/>
		<stop  offset="1" style="stop-color:#D4461D"/>
	</linearGradient>
	<path fill="url(#SVGID_1_)" d="M338.166,352.958c0,0,3.918,8.419,22.918,8.419s23.75-8.419,23.75-8.419l4.75-57.581
		c0,0-2.5,8.25-22.25,8.25s-25-10-25-10l-87.5-19.25v64.75L338.166,352.958z"/>
	<g>
		
			<linearGradient id="SVGID_2_" gradientUnits="userSpaceOnUse" x1="358.4312" y1="683.5605" x2="689.4323" y2="705.5606" gradientTransform="matrix(0.9191 -0.394 0.394 0.9191 -634.4795 -57.3605)">
			<stop  offset="0" style="stop-color:#762811"/>
			<stop  offset="1" style="stop-color:#D4461D"/>
		</linearGradient>
		<path fill="url(#SVGID_2_)" d="M328.788,343.159c-0.825,0.354-1.757,0.489-2.711,0.346l-145.53-21.929
			c-2.73-0.411-4.61-2.959-4.199-5.689c0.412-2.73,2.959-4.611,5.689-4.199l145.53,21.928c2.73,0.412,4.61,2.959,4.199,5.69
			C331.499,341.082,330.327,342.499,328.788,343.159z"/>
	</g>
	<linearGradient id="SVGID_3_" gradientUnits="userSpaceOnUse" x1="212.0869" y1="259.9697" x2="248.0872" y2="63.9681">
		<stop  offset="0" style="stop-color:#762811"/>
		<stop  offset="1" style="stop-color:#D4461D"/>
	</linearGradient>
	<polygon fill="url(#SVGID_3_)" points="239.759,168.793 217.554,164.241 229.005,108.381 251.21,112.933 	"/>
	<linearGradient id="SVGID_4_" gradientUnits="userSpaceOnUse" x1="199.0542" y1="552.4834" x2="199.0542" y2="157.2562">
		<stop  offset="0" style="stop-color:#762811"/>
		<stop  offset="1" style="stop-color:#D4461D"/>
	</linearGradient>
	<path fill="url(#SVGID_4_)" d="M147.342,543.646l38.492-32.688l-66.666-84.332c0,0-4.667-9.002-4.667-22.334c0-13.334,5-20,5-20
		l8-41L96.168,327.96l45.333-58c0,0-5.168-14.333-5.168-31.333s8.5-91.5,69-91.5s108.5,52.5,94,95s-26.5,61-26.5,61l2.5,88
		l-29.5-8.5l31.5,126.5l-22.5,51.019L147.342,543.646z"/>
	<g>
		<linearGradient id="SVGID_5_" gradientUnits="userSpaceOnUse" x1="233.5801" y1="463.3633" x2="269.5779" y2="232.3763">
			<stop  offset="0" style="stop-color:#C1421D"/>
			<stop  offset="1" style="stop-color:#F5AA7F"/>
		</linearGradient>
		<path fill="url(#SVGID_5_)" d="M254.053,477.961c-2.262,0-4.313-1.545-4.86-3.844l-26.557-111.583
			c-0.412-1.729,0.126-3.548,1.414-4.775c1.286-1.229,3.127-1.68,4.837-1.186l30.067,8.679l-2.119-67.468
			c-0.028-0.904,0.189-1.799,0.629-2.589c11.935-21.445,27.793-55.661,25.681-64.584c-0.636-2.687,1.027-5.381,3.714-6.017
			c2.687-0.636,5.382,1.025,6.018,3.714c3.623,15.307-19.667,59.041-26.003,70.537l2.292,72.958c0.05,1.599-0.667,3.124-1.93,4.105
			c-1.263,0.979-2.918,1.299-4.455,0.855l-28.432-8.207l24.572,103.245c0.639,2.686-1.02,5.383-3.707,6.021
			C254.826,477.918,254.436,477.961,254.053,477.961z"/>
	</g>
	<linearGradient id="SVGID_6_" gradientUnits="userSpaceOnUse" x1="284.5835" y1="199.915" x2="864.8793" y2="199.915">
		<stop  offset="0" style="stop-color:#0A4863"/>
		<stop  offset="1" style="stop-color:#5693AE"/>
	</linearGradient>
	<path fill="url(#SVGID_6_)" d="M284.583,162.627c0,0,10-7.75,27,6.5s10.644,21.25,10.644,21.25l147.605,94L591.5,213.294
		l-24.969-88.17l-93.698,62.503l-112.332-44.669c0,0,1.667-9.999-13-19.666s-25.292-7.667-25.292-7.667L284.583,162.627z"/>
	<linearGradient id="SVGID_7_" gradientUnits="userSpaceOnUse" x1="536.7539" y1="531.4678" x2="634.3543" y2="176.9831">
		<stop  offset="0" style="stop-color:#0A4863"/>
		<stop  offset="1" style="stop-color:#5693AE"/>
	</linearGradient>
	<path fill="url(#SVGID_7_)" d="M660.317,530.907l-24.984-23.78l49.167-80.5c0,0,4.667-9.332,4.333-22
		c-0.333-12.666-3.666-19.333-3.666-19.333l-20-47.667l31.666-12.949l-46.666-54.72c0,0,5.166-11.831,5.166-33.331
		c0-24.5-21.5-81.5-78-81.5s-82,50.605-80.5,88.553s36.5,64.447,36.5,64.447l-9.5,85.584l28-11.084l-7.5,124l10.964,36.116
		L660.317,530.907z"/>
	<g>
		<radialGradient id="SVGID_8_" cx="343.833" cy="187.627" r="146.8766" gradientUnits="userSpaceOnUse">
			<stop  offset="0" style="stop-color:#4B8CA7"/>
			<stop  offset="1" style="stop-color:#97BED0"/>
		</radialGradient>
		<path fill="url(#SVGID_8_)" d="M467.943,271.128c-0.898,0-1.808-0.242-2.628-0.75l-125.115-77.5
			c-2.348-1.454-3.072-4.536-1.618-6.884c1.454-2.347,4.536-3.072,6.883-1.618l125.115,77.5c2.348,1.454,3.072,4.536,1.617,6.884
			C471.253,270.287,469.617,271.128,467.943,271.128z"/>
	</g>
	<linearGradient id="SVGID_9_" gradientUnits="userSpaceOnUse" x1="316.0361" y1="321.5049" x2="302.5366" y2="135.5126">
		<stop  offset="0" style="stop-color:#762811"/>
		<stop  offset="1" style="stop-color:#D4461D"/>
	</linearGradient>
	<path fill="url(#SVGID_9_)" d="M170.833,201.627c0,0,6,38.002,24.333,70.668s37.667,54.667,50.667,57s26.667-9.336,45-19.002
		s153-78.334,153-78.334l1.334-12l-30-45c0,0-9.167-4.667-25.583,5s-15.75,19-15.75,19l-98.25,34.918c0,0-22.5-56.75-38-68.5
		S168.333,148.877,170.833,201.627z"/>
	<path d="M485.833,184.96L615.5,155.127l-24-105.5c0,0-65.999,14.667-85.666,19s-41.667,22-37.333,39c4.333,17,5.666,28,5.666,28
		s-7.666,3.334-4.333,11.5s12.667,4.166,12.667,4.166L485.833,184.96z"/>
	<g>
		
			<linearGradient id="SVGID_10_" gradientUnits="userSpaceOnUse" x1="595.5459" y1="1833.1807" x2="859.5424" y2="1667.1829" gradientTransform="matrix(0.4997 -0.8662 0.8662 0.4997 -1530.4937 201.0762)">
			<stop  offset="0" style="stop-color:#762811"/>
			<stop  offset="1" style="stop-color:#D4461D"/>
		</linearGradient>
		<path fill="url(#SVGID_10_)" d="M411.545,237.808c-0.449,0.777-1.114,1.444-1.963,1.901l-129.649,69.648
			c-2.433,1.307-5.464,0.394-6.771-2.039c-1.306-2.433-0.394-5.465,2.038-6.771l129.649-69.649c2.433-1.307,5.465-0.394,6.771,2.039
			C412.471,234.521,412.382,236.356,411.545,237.808z"/>
	</g>
	<linearGradient id="SVGID_11_" gradientUnits="userSpaceOnUse" x1="371.1582" y1="343.4277" x2="615.7302" y2="149.3874">
		<stop  offset="0" style="stop-color:#0A4863"/>
		<stop  offset="1" style="stop-color:#5693AE"/>
	</linearGradient>
	<path fill="url(#SVGID_11_)" d="M358.167,232.961c0,0,10.667-5.334,26,4.333c20,12.333,15.667,20.333,15.667,20.333l140,67.051
		c0,0,15.999,7.888,27.333,4.919s16.333-6.302,20-13.302s78.333-133.003,10.666-165.336c-34.666-14.999-53.666,16.667-56.332,28.667
		c-2.667,12-9,48.352-14.667,59.01l-96.332-33.343c0,0-1.333-11.333-15.333-18.333s-25.585-5-25.585-5L358.167,232.961z"/>
	<path fill="none" stroke="#FFFFFF" stroke-miterlimit="10" d="M383.168,92.625"/>
	<g>
		<linearGradient id="SVGID_12_" gradientUnits="userSpaceOnUse" x1="653.999" y1="488.626" x2="653.999" y2="249.7885">
			<stop  offset="0" style="stop-color:#4B8CA7"/>
			<stop  offset="1" style="stop-color:#97BED0"/>
		</linearGradient>
		<path fill="url(#SVGID_12_)" d="M631.161,492.627c-0.893,0-1.795-0.238-2.611-0.74c-2.354-1.445-3.09-4.523-1.645-6.877
			l37.666-61.332c2.021-3.295,7.262-13.254,7.262-19.717c0-7.938-3.289-18.351-3.701-19.624l-20.939-52.211
			c-0.988-2.466,0.123-5.273,2.531-6.395l19.164-8.921c-8.066-9.881-25.833-31.76-33.572-42.207
			c-1.121-1.514-1.297-3.528-0.454-5.213c4.313-8.628,3.493-21.793,3.483-21.925c-0.184-2.754,1.897-5.138,4.65-5.324
			c2.75-0.18,5.137,1.889,5.326,4.642c0.041,0.593,0.87,13.488-3.239,24.174c10.94,14.425,35.356,44.182,35.616,44.497
			c0.98,1.195,1.354,2.776,1.01,4.283c-0.342,1.507-1.363,2.771-2.765,3.423l-20.706,9.639l19.236,47.967
			c0.037,0.093,0.07,0.186,0.102,0.28c0.174,0.521,4.258,12.886,4.258,22.915c0,10.445-7.848,23.5-8.742,24.953l-37.664,61.328
			C634.483,491.779,632.842,492.627,631.161,492.627z"/>
	</g>
	<path d="M306.724,135.333L177.058,105.5l24-105.5c0,0,65.999,14.667,85.666,19s41.667,22,37.333,39s-5.667,28-5.667,28
		s7.666,3.334,4.333,11.5s-12.667,4.166-12.667,4.166L306.724,135.333z"/>
	<g>
		<radialGradient id="SVGID_13_" cx="423.833" cy="253.627" r="188.5338" gradientUnits="userSpaceOnUse">
			<stop  offset="0" style="stop-color:#4B8CA7"/>
			<stop  offset="1" style="stop-color:#97BED0"/>
		</radialGradient>
		<path fill="url(#SVGID_13_)" d="M562.833,319.877c-14.83,0-25.725-5.981-27.607-7.085l-118.307-56.229
			c-2.494-1.186-3.555-4.168-2.369-6.662c1.186-2.493,4.169-3.558,6.662-2.369l118.518,56.33c0.167,0.079,0.329,0.167,0.486,0.265
			c0.08,0.048,9.587,5.751,22.617,5.751c9.215,0,13.276-6.924,18.422-17.487c0.631-1.294,1.251-2.567,1.879-3.792l0.672-1.312
			c5.303-10.334,15.174-29.569,18.633-46.175c0.223-1.066,0.486-2.275,0.776-3.607c3.234-14.82,9.964-45.659-1.714-62.869
			c-4.42-6.516-11.039-10.42-20.232-11.938c-2.725-0.45-4.568-3.023-4.118-5.748c0.45-2.724,3.022-4.562,5.747-4.119
			c11.877,1.961,20.92,7.407,26.879,16.189c14.088,20.763,6.74,54.435,3.209,70.616c-0.283,1.298-0.541,2.476-0.757,3.515
			c-3.734,17.93-14.007,37.947-19.526,48.701l-0.668,1.305c-0.598,1.167-1.188,2.38-1.789,3.612
			C585.495,306.521,578.989,319.877,562.833,319.877z"/>
	</g>
	<g>
		<g>
			<circle fill="#00D8FF" cx="538.727" cy="108.676" r="7.934"/>
		</g>
		<g>
			<path fill="#00D8FF" d="M542.812,126.399c-10.857,2.503-20.648,3.408-28.312,2.617c-4.976-0.513-9.369-1.706-12.703-3.449
				c-3.545-1.852-5.742-4.243-6.357-6.911c-1.179-5.111,3.281-11.414,11.93-16.862c7.093-4.466,16.791-8.261,27.309-10.686
				c10.321-2.379,20.562-3.209,28.839-2.338c4.839,0.511,9.081,1.633,12.271,3.249c3.473,1.758,5.627,4.067,6.229,6.678
				c1.225,5.312-3.812,12.142-13.146,17.819C562.254,120.541,553,124.051,542.812,126.399z M535.528,94.807
				c-9.967,2.299-19.494,6.016-26.137,10.199c-7.966,5.017-10.891,10.042-10.256,12.798c0.662,2.868,5.873,6.419,15.752,7.438
				c7.254,0.748,16.615-0.13,27.072-2.541c9.802-2.26,18.658-5.608,24.938-9.427c8.787-5.346,12.079-10.861,11.419-13.725
				c-0.335-1.456-1.843-2.927-4.245-4.144c-2.781-1.408-6.569-2.398-10.953-2.859C555.249,91.717,545.452,92.519,535.528,94.807z"/>
		</g>
		<g>
			<path fill="#00D8FF" d="M530.055,151.276c-1.577,0.363-3.046,0.343-4.367-0.061c-5.017-1.532-8.249-8.546-8.646-18.759
				c-0.326-8.375,1.23-18.672,4.384-28.994c3.096-10.13,7.493-19.417,12.383-26.15c4.491-6.184,9.343-10.138,13.661-11.133
				c1.499-0.346,2.905-0.324,4.18,0.066c5.215,1.592,8.613,9.366,8.869,20.289c0.182,7.741-1.402,17.511-4.457,27.51
				c-3.256,10.656-7.362,19.591-11.876,25.835C539.698,146.087,534.548,150.24,530.055,151.276z M548.322,69.878
				c-3.327,0.767-7.604,4.381-11.442,9.664c-4.648,6.402-8.848,15.291-11.823,25.029c-2.989,9.782-4.528,19.893-4.223,27.737
				c0.366,9.407,3.259,14.451,5.962,15.277c0.677,0.207,1.486,0.204,2.406-0.008c3.559-0.82,8.01-4.53,11.907-9.922
				c4.271-5.91,8.188-14.458,11.323-24.721c2.939-9.62,4.463-18.966,4.291-26.312c-0.24-10.284-3.374-15.89-6.184-16.749
				C549.911,69.684,549.165,69.685,548.322,69.878z"/>
		</g>
		<g>
			<path fill="#00D8FF" d="M565.195,143.209c-4.257,0.982-10.208-0.373-16.755-3.814c-7.417-3.9-15.561-10.393-22.93-18.279
				c-7.23-7.74-13.08-16.188-16.471-23.788c-1.983-4.442-3.137-8.678-3.337-12.247c-0.218-3.888,0.701-6.908,2.659-8.736
				c1-0.934,2.291-1.589,3.839-1.946c4.519-1.041,11.14,0.562,18.168,4.396c6.798,3.709,14.471,9.958,21.608,17.599
				c7.606,8.143,13.295,16.163,16.45,23.191c2.049,4.564,3.218,8.963,3.38,12.721c0.173,3.997-0.794,7.097-2.797,8.968
				C568.013,142.203,566.729,142.854,565.195,143.209z M513.054,78.097c-0.889,0.206-1.596,0.548-2.102,1.021
				c-1.092,1.02-1.61,3.062-1.459,5.751c0.174,3.112,1.216,6.887,3.012,10.912c3.226,7.225,8.828,15.302,15.78,22.743
				c6.983,7.475,14.974,13.857,21.922,17.511c5.66,2.976,10.812,4.243,14.136,3.478c0.875-0.202,1.574-0.544,2.077-1.014
				c2.151-2.01,2.612-8.299-1.454-17.359c-2.987-6.652-8.438-14.312-15.764-22.156c-6.866-7.351-14.201-13.338-20.651-16.857
				C522.42,78.779,516.626,77.274,513.054,78.097z"/>
		</g>
	</g>
	<g>
		<g>
			<polygon fill="#B3B3B3" points="259.708,23.257 215.628,28.433 210.033,83.397 240.204,110.075 279.133,98.688 297.634,46.632 
							"/>
			<polygon fill="#A6120D" points="292.863,48.807 258.588,27.786 241.083,105.523 276.074,95.309 			"/>
			<polygon fill="#DD1B16" points="219.521,32.532 214.275,81.634 241.083,105.523 258.587,27.785 			"/>
			<path fill="#F2F2F2" d="M259.488,71.471l-11.296,2.478l-10.771-2.426l-7.915,11.525l-9.458-1.947l37.903-50.491L259.488,71.471z
				 M259.043,68.842l-5.08-20.204l-11.531,16.136l7.449,1.677L259.043,68.842z"/>
			<polygon fill="#B3B3B3" points="257.952,30.609 253.963,48.638 258.475,68.401 249.896,66.47 248.195,73.938 260.054,76.619 
				262.706,90.709 271.679,92.904 			"/>
		</g>
	</g>
</g>
<path fill="#439AD6" d="M753.664,335.713L396.5,400.106v89.535c21.724,1.199,39.03,19.248,39.03,41.267
	c0,22.018-17.307,40.065-39.03,41.265v24.515l391.49-70.581L753.664,335.713z"/>
<path fill="#D84141" d="M352.864,530.908c0-21.882,17.093-39.835,38.626-41.235v-89.566L34.326,335.713L0,526.106l391.49,70.581
	v-24.546C369.957,570.741,352.864,552.789,352.864,530.908z"/>
<circle cx="394.197" cy="530.908" r="36.333"/>
<g>
	<path fill="#FFFFFF" d="M86.561,369.163l11.148,1.966l2.445,64.688l-12.429-2.191l-0.211-13.781l-8.136-1.435l-4.774,12.902
		l-12.499-2.204L86.561,369.163z M88.049,411.942l0.927-23.683l-7.367,22.548L88.049,411.942z"/>
	<path fill="#FFFFFF" d="M116.937,374.483l9.071,1.6l7.925,35.025l5.751-32.614l10.456,1.844l-10.995,62.354l-8.725-1.538
		l-7.542-36.992l-6.099,34.587l-10.837-1.91L116.937,374.483z"/>
	<path fill="#FFFFFF" d="M154.838,402.729c2.204-12.499,8.292-21.314,22.279-18.848c13.157,2.32,16.286,11.903,14.167,23.918
		l-0.647,3.67l-12.048-2.125l0.769-4.362c0.806-4.57,1.341-10.438-3.957-11.372c-4.916-0.866-6.685,4.105-7.405,8.19l-4.744,26.901
		c-0.727,4.12-0.787,9.321,4.164,10.194c4.951,0.873,6.712-4.457,7.426-8.508l0.879-4.985l-7.132-1.258l1.593-9.036l19.735,3.479
		l-5.653,32.06l-8.656-1.526l-0.824-4.643c-2.698,2.951-7.457,4.433-11.577,3.706c-11.667-2.058-13.944-13.846-12.241-23.506
		L154.838,402.729z"/>
	<path fill="#FFFFFF" d="M203.674,389.812l12.602,2.223l-6.837,38.777c-1.85,10.49-2.649,15.025,2.925,16.008
		c5.609,0.989,6.374-3.552,8.224-14.043l6.837-38.776l12.603,2.222l-6.904,39.158c-2.265,12.844-6.618,23.965-22.475,21.168
		c-15.822-2.789-16.144-14.734-13.879-27.578L203.674,389.812z"/>
	<path fill="#FFFFFF" d="M248.932,397.793l12.603,2.223l-9.462,53.664l12.395,2.186l-1.526,8.655l-24.997-4.408L248.932,397.793z"/>
	<path fill="#FFFFFF" d="M289.793,404.998l11.148,1.966l2.444,64.688l-12.429-2.192l-0.211-13.78l-8.136-1.435l-4.774,12.901
		l-12.499-2.204L289.793,404.998z M291.282,447.778l0.927-23.684l-7.368,22.548L291.282,447.778z"/>
	<path fill="#FFFFFF" d="M320.163,410.354l13.71,2.417c12.048,2.125,19.116,7.798,16.979,19.915
		c-0.965,5.471-2.959,12.33-11.267,14.293c1.371,10.451,2.781,20.873,4.453,31.842l-13.053-2.302l-2.071-29.959l-2.077-0.366
		l-5.061,28.701l-12.603-2.222L320.163,410.354z M331.793,439.143c4.189,0.738,5.94-5.343,6.349-7.662
		c0.403-2.285,0.957-8.257-2.817-8.922l-4.189-0.739l-2.943,16.688L331.793,439.143z"/>
	<path fill="#FFFFFF" d="M95.48,455.995c0.604-3.428,0.669-9.771,5.601-8.884l0.92,3.18c-1.018-0.198-2.399-0.155-2.688,1.078
		l2.216,0.391l-0.907,5.142L95.48,455.995z M102.146,457.17c0.604-3.428,0.669-9.771,5.6-8.883l0.903,3.176
		c-1.018-0.197-2.386-0.136-2.672,1.082l2.216,0.391l-0.906,5.142L102.146,457.17z"/>
	<path fill="#FFFFFF" d="M116.319,455.26l-4.57-0.806l0.83-4.708l15.355,2.708l-0.83,4.708l-4.483-0.791l-4.664,26.451l-6.301-1.111
		L116.319,455.26z"/>
	<path fill="#FFFFFF" d="M130.689,452.939l5.834,1.029l-1.794,10.178c1.287-1.022,3.075-1.653,4.807-1.348
		c2.51,0.442,3.532,3.354,3.132,5.622l-3.208,18.193l-5.834-1.029l2.939-16.67c0.113-0.641,0.53-1.994-0.439-2.165
		c-0.745-0.132-1.589,0.611-2.029,0.98l-3.068,17.396l-5.834-1.028L130.689,452.939z"/>
	<path fill="#FFFFFF" d="M145.931,471.799c0.815-4.623,3.441-7.266,8.288-6.411c4.864,0.857,6.414,4.219,5.596,8.858l-0.824,4.674
		l-8.049-1.419l-0.882,5.003c-0.131,0.744-0.249,1.92,0.772,2.1c1.038,0.184,1.4-0.859,1.571-1.829l0.437-2.476l5.73,1.01
		l-0.449,2.545c-0.684,3.878-4.377,5.797-8.064,5.146c-3.67-0.647-6.5-3.734-5.819-7.594L145.931,471.799z M153.749,474.836
		l0.549-3.115c0.138-0.779,0.095-1.75-0.857-1.918c-0.917-0.162-1.282,0.791-1.41,1.519l-0.549,3.115L153.749,474.836z"/>
	<path fill="#FFFFFF" d="M172.056,460.233l7.547,1.331l-0.339,21.358l7.246-20.141l7.288,1.285l-5.494,31.159l-4.639-0.818
		l3.726-21.939c-2.209,6.554-5.291,14.721-7.5,21.274l-4.708-0.83l0.062-22.729l-4.027,22.029l-4.657-0.821L172.056,460.233z"/>
	<path fill="#FFFFFF" d="M201.617,495.164c-1.124,2.123-2.924,2.412-4.984,2.049c-3.462-0.61-4.161-3.732-3.697-6.363
		c0.983-5.574,5.176-6.78,10.188-7.878l0.336-1.904c0.266-1.506,0.106-2.426-0.88-2.601c-1.35-0.237-1.625,1.017-1.82,2.124
		l-0.226,1.281l-5.661-0.998c0.91-5.158,4.054-7.604,9.057-6.722c3.428,0.605,6.002,4.022,5.386,7.52l-1.893,10.732
		c-0.366,2.077-0.425,4.03-0.314,6.138l-5.332-0.94L201.617,495.164z M202.479,486.731c-1.72,0.946-3.375,2.332-3.771,4.582
		c-0.134,0.762-0.053,1.723,0.881,1.888c0.779,0.137,1.423-0.481,1.91-0.913L202.479,486.731z"/>
	<path fill="#FFFFFF" d="M214.436,476.541l5.834,1.028l-0.281,1.593c1.287-1.022,3.07-1.618,4.801-1.312
		c2.51,0.442,3.538,3.319,3.138,5.587l-3.211,18.211l-5.834-1.029l3.031-17.189c0.086-0.484,0.266-1.506-0.704-1.677
		c-0.675-0.119-1.438,0.567-1.835,0.89l-3.089,17.519l-5.834-1.028L214.436,476.541z"/>
	<path fill="#FFFFFF" d="M243.795,504.923c-0.873,4.951-4.761,5.336-8.846,4.615c-2.804-0.494-8.287-1.692-7.609-5.536
		c0.287-1.627,1.573-3.149,3.135-3.909c-0.568-0.422-1.827-1.482-1.708-2.158c0.165-0.935,2.124-2.73,2.992-3.506
		c-0.728-2.146-1.012-4.587-0.624-6.786c0.751-4.258,3.425-8.089,8.359-7.219c1.488,0.263,2.962,0.915,3.763,2.146
		c1.185-0.951,3.041-0.946,4.495-0.689l0.727,0.128l-1.22,4.088c-0.848-0.15-1.877-0.189-2.61,0.325
		c0.461,1.33,0.26,2.776,0.034,4.057c-0.721,4.086-3.816,7.271-8.3,6.48c-0.709-0.126-1.823-0.59-1.823-0.59
		s-0.536,0.709-0.563,0.864C233.632,499.293,244.699,499.799,243.795,504.923z M233.306,501.752
		c-0.464,0.507-1.021,1.229-1.161,2.026c-0.167,0.952,2.642,1.52,3.664,1.699c0.536,0.095,2.062,0.452,2.285-0.812
		c0.311-1.766-2.826-2.497-4.372-2.841L233.306,501.752z M239.337,488.804c0.177-1.004,0.709-4.123-0.606-4.354
		c-1.368-0.241-1.841,2.138-2.186,4.094c-0.177,1.004-0.651,3.794,0.665,4.026C238.612,492.816,239.151,489.859,239.337,488.804z"/>
	<path fill="#FFFFFF" d="M251.857,474.305l5.833,1.028l-5.494,31.159l-5.833-1.028L251.857,474.305z"/>
	<path fill="#FFFFFF" d="M258.824,491.704c0.815-4.622,3.44-7.265,8.288-6.41c4.864,0.857,6.414,4.219,5.596,8.858l-0.824,4.674
		l-8.05-1.419l-0.882,5.003c-0.131,0.744-0.25,1.919,0.772,2.1c1.039,0.183,1.401-0.86,1.572-1.83l0.437-2.476l5.73,1.011
		l-0.449,2.545c-0.684,3.878-4.378,5.796-8.065,5.146c-3.67-0.647-6.5-3.734-5.819-7.595L258.824,491.704z M266.641,494.742
		l0.55-3.115c0.137-0.779,0.094-1.75-0.858-1.918c-0.917-0.162-1.282,0.791-1.41,1.519l-0.55,3.115L266.641,494.742z"/>
	<path fill="#FFFFFF" d="M277.514,487.663l5.799,1.022l-0.324,1.836c0.958-1.081,2.165-1.85,3.498-1.615
		c0.537,0.095,1.023,0.271,1.544,0.451l-0.867,4.916c-0.628-0.182-1.562-0.453-2.237-0.572c-1.593-0.281-2.604,0.594-2.924,2.412
		l-2.674,15.164l-5.799-1.023L277.514,487.663z"/>
	<path fill="#FFFFFF" d="M291.635,487.565c0.984,0.192,2.432,0.18,2.689-1.078l-2.216-0.391l0.907-5.142l5.141,0.906
		c-0.602,3.41-0.669,9.77-5.583,8.887L291.635,487.565z M298.283,488.738c1.019,0.197,2.415,0.176,2.707-1.076l-2.216-0.391
		l0.907-5.142l5.142,0.907c-0.604,3.428-0.67,9.77-5.601,8.883L298.283,488.738z"/>
</g>
<g>
	<path fill="#FFFFFF" d="M372.725,513.622h7.075l3.261,22.374l3.609-22.374h6.973l-7.301,36.914h-6.829L372.725,513.622z"/>
	<path fill="#FFFFFF" d="M403.429,538.519c0,3.24,0.268,7.055,2.852,7.055c1.764,0,2.215-1.271,2.215-2.83
		c0-3.076-2.215-5.824-4.369-7.711l-2.316-1.969c-2.912-2.461-5.928-5.168-5.928-10.479c0-6.05,4.205-9.721,10.418-9.721
		c5.25,0,9.414,4.286,9.414,9.516c0,0.123-0.021,0.287-0.021,0.882l-7.711,1.066c0-0.472,0.062-0.923,0.062-1.497
		c0-1.743-0.391-4.245-2.359-4.245c-1.764,0-2.461,1.682-2.461,3.24c0,4.04,3.59,6.009,5.887,8.101
		c3.793,3.384,6.645,6.85,6.645,12.551c0,5.291-4.348,8.818-9.496,8.818c-7.074,0-10.109-5.537-10.396-11.32L403.429,538.519z"/>
</g>
<g>
	<path fill="#FFFFFF" d="M487.45,409.478l13.71-2.418c12.048-2.124,20.63,0.789,22.767,12.906
		c0.965,5.471,1.437,12.599-5.698,17.284c4.862,9.353,9.752,18.664,15.074,28.399l-13.053,2.301l-12.192-27.443l-2.078,0.366
		l5.062,28.701l-12.603,2.223L487.45,409.478z M508.226,432.553c4.189-0.739,3.754-7.053,3.345-9.372
		c-0.402-2.285-1.925-8.086-5.698-7.42l-4.189,0.738l2.942,16.688L508.226,432.553z"/>
	<path fill="#FFFFFF" d="M528.068,402.315l26.001-4.585l1.526,8.655l-13.398,2.362l2.991,16.965l9.486-1.673l1.562,8.863
		l-9.486,1.673l3.383,19.181l13.398-2.362l1.526,8.655l-26.002,4.585L528.068,402.315z"/>
	<path fill="#FFFFFF" d="M570.419,394.848l11.148-1.966l24.421,59.951l-12.429,2.191l-4.912-12.878l-8.137,1.435l-0.073,13.757
		l-12.498,2.204L570.419,394.848z M586.448,434.538l-7.229-22.572l0.789,23.708L586.448,434.538z"/>
	<path fill="#FFFFFF" d="M603.259,410.583c-2.174-12.325,0.294-22.827,14.178-25.275c12.914-2.277,19.028,5.677,21.146,17.69
		l0.946,5.366l-12.395,2.186l-1.014-5.747c-0.817-4.64-2.191-10.608-6.97-9.767c-4.743,0.837-4.523,6.331-3.846,10.175l4.743,26.901
		c0.684,3.878,2.31,9.053,7.088,8.21c4.604-0.812,4.161-6.768,3.272-11.607l-1.13-6.405l12.325-2.174l0.929,5.263
		c1.805,11.248-0.144,22.266-13.681,24.652c-13.85,2.441-19.838-6.819-21.956-18.833L603.259,410.583z"/>
	<path fill="#FFFFFF" d="M650.373,390.459l-9.14,1.612l-1.66-9.417l30.709-5.415l1.661,9.417l-8.968,1.581l9.328,52.902
		l-12.603,2.222L650.373,390.459z"/>
	<path fill="#FFFFFF" d="M497.543,492.957c-0.604-3.428-2.713-9.411,2.224-10.264l1.953,2.673c-1.024,0.162-2.309,0.675-2.157,1.934
		l2.216-0.391l0.906,5.142L497.543,492.957z M504.208,491.781c-0.604-3.428-2.713-9.41,2.225-10.263l1.935,2.676
		c-1.024,0.162-2.288,0.688-2.141,1.93l2.216-0.391l0.906,5.142L504.208,491.781z"/>
	<path fill="#FFFFFF" d="M513.083,480.953l6.509-1.147c8.344-1.472,10.866,1.189,12.114,8.27l1.801,10.214
		c1.282,7.271,0.477,11.106-8.49,12.688l-6.439,1.136L513.083,480.953z M527.816,502.861l-2.958-16.774
		c-0.385-2.181-1.781-2.31-4.451-1.856l3.936,22.313C527.562,505.977,528.308,505.648,527.816,502.861z"/>
	<path fill="#FFFFFF" d="M535.562,487.753c-1.09-6.181,0.217-11.427,7.158-12.651c6.941-1.224,9.98,3.256,11.07,9.437l1.819,10.317
		c1.06,6.007-0.274,11.4-7.182,12.618c-6.873,1.212-9.96-3.241-11.02-9.248L535.562,487.753z M547.211,484.074
		c-0.351-1.991-1.228-4.532-3.634-4.108c-2.389,0.422-2.337,3.145-1.992,5.101l2.375,13.468c0.348,1.974,1.207,4.517,3.613,4.092
		c2.44-0.43,2.367-3.076,2.013-5.084L547.211,484.074z"/>
	<path fill="#FFFFFF" d="M556.143,473.36l7.548-1.331l6.986,20.187l-0.079-21.404l7.288-1.285l5.494,31.159l-4.64,0.818
		l-4.003-21.891c0.166,6.913,0.063,15.643,0.229,22.556L570.258,503l-7.715-21.38l3.751,22.078l-4.656,0.821L556.143,473.36z"/>
	<path fill="#FFFFFF" d="M582.487,469.894l5.834-1.029l0.961,5.452l-5.833,1.029L582.487,469.894z M583.797,477.319l5.833-1.029
		l3.984,22.591l-5.834,1.029L583.797,477.319z"/>
	<path fill="#FFFFFF" d="M593.806,475.555l5.834-1.029l0.281,1.593c0.859-1.401,2.331-2.57,4.062-2.876
		c2.511-0.442,4.46,1.909,4.86,4.177l3.211,18.211l-5.834,1.028l-3.031-17.189c-0.085-0.484-0.266-1.506-1.234-1.335
		c-0.676,0.119-1.158,1.025-1.42,1.464l3.089,17.519l-5.834,1.029L593.806,475.555z"/>
	<path fill="#FFFFFF" d="M624.195,491.079c-0.33,2.38-1.923,3.267-3.982,3.63c-3.463,0.61-5.188-2.084-5.651-4.715
		c-0.982-5.574,2.545-8.142,6.88-10.888l-0.335-1.904c-0.266-1.506-0.73-2.316-1.717-2.143c-1.351,0.238-1.18,1.511-0.984,2.618
		l0.226,1.281l-5.66,0.998c-0.91-5.158,1.209-8.531,6.212-9.413c3.428-0.604,7.016,1.727,7.632,5.224l1.893,10.732
		c0.366,2.077,0.979,3.933,1.804,5.875l-5.332,0.94L624.195,491.079z M622.121,482.86c-1.292,1.478-2.373,3.346-1.976,5.596
		c0.134,0.762,0.538,1.637,1.473,1.472c0.779-0.138,1.174-0.938,1.482-1.511L622.121,482.86z"/>
	<path fill="#FFFFFF" d="M630.956,473.021l-1.661,0.293l-0.687-3.896l1.661-0.293l-1.31-7.426l5.834-1.029l1.31,7.426l2.805-0.494
		l0.687,3.896l-2.805,0.494l2.177,12.343c0.208,1.177,0.673,1.792,1.901,1.575c0.571-0.101,1.123-0.216,1.679-0.403l0.797,4.519
		c-1.082,0.547-2.484,0.794-3.627,0.995c-4.916,0.867-6.136-3.111-6.831-7.059L630.956,473.021z"/>
	<path fill="#FFFFFF" d="M643.3,474.164c-0.815-4.622,0.699-7.978,5.685-8.857c4.986-0.879,7.641,1.724,8.459,6.363l1.693,9.607
		c0.685,3.878-2.218,6.959-5.991,7.624c-3.757,0.663-7.471-1.27-8.152-5.13L643.3,474.164z M651.396,471.184
		c-0.138-0.779-0.545-1.671-1.636-1.479c-1.056,0.187-1.021,1.197-0.892,1.925l1.972,11.183c0.134,0.762,0.37,1.898,1.53,1.693
		c1.194-0.21,1.138-1.343,0.997-2.139L651.396,471.184z"/>
	<path fill="#FFFFFF" d="M660.052,463.873l5.799-1.022l0.324,1.835c0.531-1.343,1.401-2.479,2.734-2.714
		c0.537-0.094,1.054-0.096,1.605-0.104l0.867,4.916c-0.652,0.044-1.623,0.108-2.298,0.228c-1.593,0.28-2.244,1.448-1.923,3.266
		l2.674,15.164l-5.8,1.022L660.052,463.873z"/>
	<path fill="#FFFFFF" d="M673.288,458.951c0.99-0.156,2.347-0.663,2.158-1.933l-2.216,0.391l-0.906-5.142l5.142-0.907
		c0.601,3.41,2.712,9.41-2.207,10.261L673.288,458.951z M679.936,457.779c1.024-0.162,2.329-0.66,2.176-1.937l-2.216,0.391
		l-0.906-5.142l5.141-0.906c0.605,3.428,2.713,9.41-2.225,10.264L679.936,457.779z"/>
</g>
<g>
	<g>
		<path fill="#BFBFBF" d="M228.94,550.22l-1.347-9.344l-2.066-0.363l2.042,11.865c-0.137,0.226-0.354,0.568-0.65,1.032
			c-0.297,0.464-0.468,0.716-0.509,0.764c-0.136,0.145-0.294,0.257-0.473,0.339c-0.179,0.085-0.436,0.096-0.771,0.037
			c-0.107-0.02-0.232-0.054-0.37-0.095c-0.137-0.048-0.357-0.142-0.658-0.285l-0.293,1.661c0.192,0.089,0.358,0.154,0.491,0.2
			c0.134,0.044,0.331,0.091,0.587,0.136c1.053,0.186,1.847,0.014,2.385-0.519c0.539-0.531,1.577-2.088,3.117-4.667
			c0.653-1.094,1.473-2.518,2.463-4.261c1.321-2.324,2.172-3.809,2.55-4.461l-2.014-0.355L228.94,550.22z M218.025,549.062
			c-1.314-0.232-2.107-0.987-2.376-2.266c-0.146-0.679-0.127-1.528,0.053-2.548c0.248-1.407,0.738-2.366,1.475-2.871
			c0.734-0.501,1.518-0.681,2.35-0.534c0.954,0.168,1.61,0.672,1.97,1.506c0.36,0.836,0.439,1.824,0.238,2.964
			c-0.226,1.284-0.652,2.271-1.284,2.968C219.822,548.976,219.012,549.235,218.025,549.062z M213.053,549.49l1.681,0.297
			l0.245-1.387c0.293,0.588,0.588,1.03,0.886,1.327c0.498,0.496,1.161,0.82,1.988,0.966c1.478,0.261,2.731-0.104,3.766-1.093
			c1.033-0.985,1.7-2.335,2.002-4.048c0.319-1.811,0.139-3.251-0.542-4.328c-0.681-1.076-1.698-1.732-3.052-1.972
			c-0.651-0.114-1.277-0.085-1.883,0.09c-0.603,0.176-1.149,0.488-1.642,0.936l0.951-5.394l-1.771-0.312L213.053,549.49
			L213.053,549.49z"/>
	</g>
	<path fill="#BFBFBF" d="M318.765,552.562c0.672,0.791,2.076,2.452,1.617,5.058c-0.447,2.536-2.099,3.484-3.738,4.36
		c-0.525,0.366-1.124,0.758-1.257,1.514c-0.132,0.752,0.308,1.255,0.63,1.631l1.067,1.177c1.284,1.534,2.449,2.942,2.032,5.309
		c-0.568,3.224-4.263,5.93-10.159,4.89c-4.974-0.877-6.956-3.664-6.508-6.205c0.218-1.235,1.142-2.872,3.378-3.715
		c2.354-0.93,5.266-0.592,6.827-0.425c-0.372-0.7-0.806-1.449-0.618-2.512c0.103-0.582,0.335-0.896,0.579-1.277
		c-0.384-0.032-0.766-0.064-1.11-0.125c-3.633-0.641-5.214-3.713-4.743-6.387c0.278-1.576,1.309-3.2,3.005-4.208
		c2.239-1.267,4.618-1.13,6.471-0.804l7.063,1.245l-2.413,0.847l-2.124-0.374 M313.643,567.357c-0.267-0.083-0.438-0.112-0.78-0.173
		c-0.31-0.055-2.175-0.313-3.699-0.087c-0.802,0.142-3.141,0.576-3.57,3.011c-0.429,2.436,1.627,4.603,5.296,5.25
		c3.292,0.58,5.319-0.692,5.693-2.814C316.893,570.792,315.925,569.67,313.643,567.357z M315.787,561.018
		c0.929-0.651,1.19-1.734,1.299-2.353c0.436-2.471-0.362-6.569-3.208-7.071c-0.892-0.157-1.93,0.119-2.602,0.708
		c-0.709,0.618-1.042,1.514-1.2,2.406c-0.405,2.295,0.26,6.34,3.21,6.859C314.144,561.719,315.14,561.47,315.787,561.018z
		 M294.589,563.432c-5.442-0.96-7.604-5.716-6.928-9.552c0.791-4.486,5.131-7.674,10.335-6.756c5.031,0.887,7.487,5.379,6.756,9.522
		C304.04,560.686,300.171,564.416,294.589,563.432 M299.356,561.413c1.017-0.951,1.464-2.284,1.7-3.619
		c0.531-3.013,0.107-9.016-4.139-9.765c-1.129-0.199-2.338,0.046-3.286,0.622c-1.546,0.963-2.053,2.425-2.313,3.897
		c-0.597,3.388,0.098,9.263,4.24,9.993C296.894,562.777,298.378,562.368,299.356,561.413z M276.034,560.159
		c-5.442-0.959-7.604-5.716-6.928-9.552c0.791-4.486,5.13-7.673,10.334-6.755c5.031,0.887,7.486,5.379,6.756,9.521
		C285.484,557.413,281.614,561.144,276.034,560.159 M280.802,558.142c1.015-0.951,1.462-2.284,1.698-3.619
		c0.531-3.013,0.106-9.017-4.139-9.766c-1.128-0.198-2.337,0.047-3.286,0.622c-1.547,0.963-2.051,2.426-2.311,3.898
		c-0.597,3.388,0.095,9.263,4.239,9.993C278.34,559.506,279.824,559.097,280.802,558.142z M265.161,557.688l0.74-4.199
		c0.061-0.343,0.27-1.335,0.359-1.64c0.117-0.261,0.163-0.327,0.442-0.49l1.045-0.701l-7.296-1.286l-3.013,0.994l5.245,0.641
		l-0.977,5.54c-1.105,0.231-2.319,0.479-4.523,0.091c-7.502-1.323-11.109-8.241-9.969-14.71c1.062-6.022,5.887-9.432,11.325-8.473
		c4.061,0.716,5.824,3.19,6.794,4.531l-1.104,1.228l1.253-0.062l3.336-2.215c-0.666-0.651-1.713-1.758-4.167-2.937
		c-1.538-0.732-3.279-1.323-5.138-1.65c-8.777-1.548-14.996,3.741-16.174,10.418c-0.965,5.474,1.415,13.096,10.916,14.771
		c1.893,0.334,3.73,0.376,5.781,0.417L265.161,557.688 M327.323,567.63c-1.118-0.305-1.32-0.555-1.083-1.896l3.435-19.479
		c0.02-0.074,0.04-0.149,0.06-0.22c0.35-1.178,0.73-1.325,1.906-1.756l-4.921-0.868l-2.801,0.784l2.632,0.464l-0.002,0.015
		l-0.001-0.012l-3.747,21.248c-0.122,0.689-0.275,0.767-1.248,1.657l6.091,1.074l1.407-0.531
		C328.478,567.938,327.898,567.801,327.323,567.63 M341.273,570.415c-0.411,0.141-0.83,0.312-1.235,0.417
		c-1.221,0.313-2.407,0.246-3.433,0.065c-1.092-0.192-2.79-0.564-4.311-2.136c-2.124-2.137-2.667-5.264-2.214-7.827
		c0.934-5.298,5.7-7.137,9.218-6.516c1.231,0.217,2.443,0.749,3.354,1.58c1.509,1.428,1.693,2.977,1.795,3.803l-8.604,1.834
		l-2.67-0.262c0.088,4.492,2.584,7.54,5.83,8.113c1.743,0.307,3.116-0.085,4.38-0.462L341.273,570.415 M339.857,559.661
		c0.69-0.125,1.069-0.269,1.154-0.749c0.241-1.364-1.019-3.21-2.864-3.535c-1.369-0.242-4.118,0.367-4.769,4.059
		c-0.103,0.581-0.144,1.208-0.217,1.829L339.857,559.661z"/>
</g>
<g>
	<g>
		<path fill="#BFBFBF" d="M512.839,546.603c-1.091,0.191-1.813,0.688-2.548,1.192l1.455,8.245c0.776-0.062,1.215-0.139,1.938-0.267
			c2.618-0.461,2.765-1.724,2.47-3.398l-0.694-3.937C515.242,547.202,514.657,546.282,512.839,546.603z M495.375,549.218
			c-1.816,0.32-2.057,1.391-1.84,2.626l0.123,0.692l4.461-0.786l-0.123-0.693C497.777,549.822,497.188,548.897,495.375,549.218z
			 M463.209,563.738c0.172,0.977,0.723,1.403,1.739,1.224c1.091-0.193,1.675-0.661,2.407-1.169l-0.346-1.955l-2.387,0.421
			C463.494,562.458,463.035,562.756,463.209,563.738z M529.751,543.62c-1.819,0.32-2.274,1.425-2.058,2.661l0.796,4.511
			c0.218,1.239,1.024,2.125,2.845,1.804c1.813-0.32,2.273-1.429,2.054-2.667l-0.794-4.512
			C532.375,544.181,531.564,543.3,529.751,543.62z M455.186,570.368l-5.35,0.943l-2.282-12.944l-2.672,0.47l-0.786-4.46l2.672-0.472
			l-0.472-2.678c-0.642-3.64,0.485-6.069,4.771-6.825l3.569-0.63l0.787,4.462l-2.231,0.394c-1.669,0.295-1.669,0.938-1.464,2.101
			l0.387,2.234l4.041-0.713l0.314,4.544l-3.568,0.63L455.186,570.368z M473.468,567.18l-4.457,0.785l-0.392-1.094
			c-1.836,1.486-3.621,1.989-4.818,2.201c-3.27,0.576-5.395-1.301-5.928-4.32c-0.627-3.563,1.179-5.192,4.812-5.834l3.696-0.651
			l-0.136-0.771c-0.321-1.818-0.624-2.314-3.421-1.821l-4.572,0.806l-0.339-4.539l4.997-0.882c6.138-1.081,7.824,0.619,8.691,5.528
			L473.468,567.18z M486.395,551.855c-2.857,0.013-3.672,0.05-5.008,0.285c-2.396,0.423-3.027,1.078-2.669,3.115l0.679,3.85
			c0.359,2.036,1.178,2.44,3.575,2.017c1.334-0.235,2.111-0.481,4.802-1.447l0.768,4.35c-2.334,0.973-3.893,1.396-5.23,1.632
			c-5.74,1.013-8.556-1.604-9.325-5.967l-0.551-3.124c-0.771-4.366,0.979-7.793,6.722-8.806c1.337-0.236,2.945-0.372,5.472-0.254
			L486.395,551.855z M504.097,554.38l-9.808,1.729l0.062,0.359c0.359,2.036,1.178,2.439,3.574,2.018
			c2.156-0.38,3.452-0.719,6.136-1.684l0.767,4.351c-2.572,1.015-3.939,1.404-6.56,1.865c-5.743,1.013-8.559-1.604-9.327-5.967
			l-0.631-3.571c-0.672-3.816,0.472-7.242,6.356-8.279c5.884-1.037,8.12,1.754,8.8,5.606L504.097,554.38z M521.495,551.396
			c0.743,4.217,0.081,7.504-7.219,8.791c-2.636,0.466-4.222,0.506-7.211,0.571l-4.249-24.101l5.188-1.834l1.488,8.43
			c1.078-0.632,2.537-1.115,3.896-1.354c5.348-0.943,6.66,1.298,7.339,5.149L521.495,551.396z M538.649,548.468
			c0.642,3.636-0.237,7.429-6.521,8.537c-6.285,1.108-8.438-2.15-9.078-5.787l-0.619-3.511c-0.642-3.64,0.266-7.437,6.551-8.545
			c6.283-1.109,8.406,2.155,9.049,5.793L538.649,548.468z M555.775,545.448c0.641,3.636-0.24,7.429-6.521,8.537
			c-6.285,1.107-8.438-2.15-9.078-5.787l-0.619-3.512c-0.642-3.64,0.266-7.437,6.551-8.544c6.281-1.108,8.407,2.154,9.049,5.792
			L555.775,545.448z M574.578,549.316l-5.793,1.021l-6.344-7.317l1.441,8.182l-5.348,0.943l-4.328-24.547l5.189-1.837l2.787,15.803
			l3.531-8.632l5.795-1.022l-3.854,9.421L574.578,549.316z M546.875,540.6c-1.815,0.32-2.271,1.425-2.053,2.661l0.795,4.511
			c0.219,1.239,1.024,2.125,2.842,1.805c1.813-0.32,2.279-1.43,2.061-2.669l-0.795-4.511
			C549.506,541.159,548.689,540.281,546.875,540.6z"/>
		<path fill="#BFBFBF" d="M577.094,545.724c0.901-0.158,1.747,0.45,1.908,1.367c0.165,0.931-0.424,1.783-1.33,1.943
			c-0.903,0.158-1.764-0.438-1.928-1.369c-0.162-0.917,0.441-1.782,1.344-1.94L577.094,545.724z M577.133,545.982
			c-0.727,0.127-1.21,0.856-1.074,1.627c0.139,0.784,0.842,1.296,1.572,1.166c0.735-0.12,1.21-0.849,1.072-1.625
			c-0.137-0.777-0.832-1.299-1.564-1.169L577.133,545.982z M577.24,548.393l-0.295,0.052l-0.324-1.842
			c0.15-0.05,0.293-0.097,0.514-0.136c0.278-0.049,0.471-0.022,0.596,0.037c0.123,0.063,0.203,0.176,0.234,0.353
			c0.043,0.244-0.092,0.416-0.277,0.512l0.002,0.015c0.166,0.001,0.301,0.127,0.387,0.392c0.092,0.28,0.156,0.381,0.195,0.437
			l-0.307,0.054c-0.055-0.053-0.129-0.212-0.207-0.448c-0.086-0.227-0.219-0.294-0.454-0.253L577.1,547.6L577.24,548.393z
			 M577.061,547.373l0.213-0.037c0.24-0.043,0.429-0.168,0.389-0.396c-0.029-0.161-0.174-0.301-0.502-0.243
			c-0.096,0.017-0.162,0.035-0.21,0.053L577.061,547.373z"/>
	</g>
</g>
</svg>
